<svg width="22" height="22" viewBox="0 0 22 22" fill="none" xmlns="http://www.w3.org/2000/svg">
<path d="M20.6 22L17.525 18.95C17.225 19.1333 16.9043 19.271 16.563 19.363C16.2217 19.455 15.8673 19.5007 15.5 19.5C14.4 19.5 13.4583 19.1083 12.675 18.325C11.8917 17.5417 11.5 16.6 11.5 15.5C11.5 14.4 11.8917 13.4583 12.675 12.675C13.4583 11.8917 14.4 11.5 15.5 11.5C16.6 11.5 17.5417 11.8917 18.325 12.675C19.1083 13.4583 19.5 14.4 19.5 15.5C19.5 15.8833 19.45 16.246 19.35 16.588C19.25 16.93 19.1083 17.2507 18.925 17.55L22 20.6L20.6 22ZM4.5 19.5C3.4 19.5 2.45833 19.1083 1.675 18.325C0.891667 17.5417 0.5 16.6 0.5 15.5C0.5 14.4 0.891667 13.4583 1.675 12.675C2.45833 11.8917 3.4 11.5 4.5 11.5C5.6 11.5 6.54167 11.8917 7.325 12.675C8.10833 13.4583 8.5 14.4 8.5 15.5C8.5 16.6 8.10833 17.5417 7.325 18.325C6.54167 19.1083 5.6 19.5 4.5 19.5ZM4.5 17.5C5.05 17.5 5.52067 17.3043 5.912 16.913C6.30333 16.5217 6.49933 16.0507 6.5 15.5C6.50067 14.9493 6.305 14.4787 5.913 14.088C5.521 13.6973 5.05 13.5013 4.5 13.5C3.95 13.4987 3.47933 13.6947 3.088 14.088C2.69667 14.4813 2.50067 14.952 2.5 15.5C2.49933 16.048 2.69533 16.519 3.088 16.913C3.48067 17.307 3.95133 17.5027 4.5 17.5ZM15.5 17.5C16.05 17.5 16.521 17.3043 16.913 16.913C17.305 16.5217 17.5007 16.0507 17.5 15.5C17.4993 14.9493 17.3037 14.4787 16.913 14.088C16.5223 13.6973 16.0513 13.5013 15.5 13.5C14.9487 13.4987 14.478 13.6947 14.088 14.088C13.698 14.4813 13.502 14.952 13.5 15.5C13.498 16.048 13.694 16.519 14.088 16.913C14.482 17.307 14.9527 17.5027 15.5 17.5ZM4.5 8.5C3.4 8.5 2.45833 8.10833 1.675 7.325C0.891667 6.54167 0.5 5.6 0.5 4.5C0.5 3.4 0.891667 2.45833 1.675 1.675C2.45833 0.891667 3.4 0.5 4.5 0.5C5.6 0.5 6.54167 0.891667 7.325 1.675C8.10833 2.45833 8.5 3.4 8.5 4.5C8.5 5.6 8.10833 6.54167 7.325 7.325C6.54167 8.10833 5.6 8.5 4.5 8.5ZM15.5 8.5C14.4 8.5 13.4583 8.10833 12.675 7.325C11.8917 6.54167 11.5 5.6 11.5 4.5C11.5 3.4 11.8917 2.45833 12.675 1.675C13.4583 0.891667 14.4 0.5 15.5 0.5C16.6 0.5 17.5417 0.891667 18.325 1.675C19.1083 2.45833 19.5 3.4 19.5 4.5C19.5 5.6 19.1083 6.54167 18.325 7.325C17.5417 8.10833 16.6 8.5 15.5 8.5ZM4.5 6.5C5.05 6.5 5.521 6.30433 5.913 5.913C6.305 5.52167 6.50067 5.05067 6.5 4.5C6.49933 3.94933 6.30367 3.47867 5.913 3.088C5.52233 2.69733 5.05133 2.50133 4.5 2.5C3.94867 2.49867 3.478 2.69467 3.088 3.088C2.698 3.48133 2.502 3.952 2.5 4.5C2.498 5.048 2.694 5.519 3.088 5.913C3.482 6.307 3.95267 6.50267 4.5 6.5ZM15.5 6.5C16.05 6.5 16.521 6.30433 16.913 5.913C17.305 5.52167 17.5007 5.05067 17.5 4.5C17.4993 3.94933 17.3037 3.47867 16.913 3.088C16.5223 2.69733 16.0513 2.50133 15.5 2.5C14.9487 2.49867 14.478 2.69467 14.088 3.088C13.698 3.48133 13.502 3.952 13.5 4.5C13.498 5.048 13.694 5.519 14.088 5.913C14.482 6.307 14.9527 6.50267 15.5 6.5Z" fill="#484C52"/>
</svg>
