<svg width="48" height="35" viewBox="0 0 48 35" fill="none" xmlns="http://www.w3.org/2000/svg">
<path d="M3.40183 31.9451C2.41783 32.0777 1.48408 32.2296 0.622578 32.4032C0.521078 32.4237 0.421828 32.4639 0.326328 32.5053C0.262578 32.5329 0.242327 32.5822 0.252077 32.6305C0.283327 32.7879 1.62233 32.5687 3.68158 32.307C3.58283 32.199 3.48908 32.078 3.40183 31.9451Z" fill="black"/>
<path d="M47.5417 31.9298C47.4165 31.9187 43.5522 31.6504 37.9927 31.411C37.9805 31.5572 37.9665 31.6961 37.9492 31.8282C42.042 31.9984 45.4282 32.1678 47.564 32.2139C47.8322 32.2195 47.7965 31.9525 47.5417 31.9298Z" fill="black"/>
<path d="M20.673 5.35095C20.8483 5.35835 22.848 3.02796 23.4535 2.20563C23.6783 1.90013 23.6625 1.76426 23.3165 2.07692C22.5273 2.79002 20.2193 5.33172 20.673 5.35095Z" fill="black"/>
<path d="M6.73794 3.91251C6.65344 3.88909 6.56069 3.9712 6.64069 4.04961C6.64594 4.05478 9.91919 6.90421 10.1447 6.89681C10.7914 6.87585 6.80569 3.93125 6.73794 3.91251Z" fill="black"/>
<path d="M14.0786 0.725006C14.0799 1.33109 14.3034 3.55668 14.5094 4.56813C14.5816 4.9232 14.7971 4.89706 14.7971 4.63421C14.8246 4.63224 14.4984 1.84249 14.2861 0.864568C14.1899 0.421472 14.0781 0.458951 14.0786 0.725006Z" fill="black"/>
<path d="M8.33807 12.1055C6.94382 11.8456 6.04307 11.725 5.60032 11.7016C5.15057 11.6776 5.15707 11.8517 5.61582 11.9832C6.08332 12.117 7.02007 12.21 8.35382 12.4112C8.92557 12.4975 9.02507 12.2337 8.33807 12.1055Z" fill="black"/>
<path d="M46.8507 28.6509C46.8394 27.4861 46.2057 26.0944 45.9389 25.6814C45.8799 25.5902 45.3119 24.7198 45.1749 24.5888C44.9754 24.3982 45.2462 24.1896 45.0534 23.8979C44.9479 23.7382 45.1679 23.698 45.1494 23.4036C45.1259 23.03 44.8364 23.1316 44.8877 23.0043C44.9797 22.7753 45.0604 22.7948 45.5567 22.025C45.7164 21.7771 45.8392 21.5604 45.6437 21.3843C45.0799 20.8767 45.0502 21.1654 44.9969 21.0014C44.7647 20.2863 44.1104 20.0486 43.6274 20.3268C43.5617 20.3648 43.5547 20.3068 43.5089 20.2139C43.3459 19.8812 42.9954 19.6006 42.5952 19.5979C42.1949 19.5952 42.1544 19.8203 42.0722 19.6938C41.6144 18.9889 40.4437 19.1901 40.3092 20.1677C40.2934 20.2829 40.2672 20.2518 39.9279 20.3275C39.5079 20.421 39.2227 20.4264 39.3194 20.7156C39.4829 21.2048 39.6639 21.7229 39.9104 22.1443C39.9662 22.2395 39.8429 22.217 39.7532 22.3549C39.5702 22.6357 39.8159 22.7383 39.6752 22.7896C39.3217 22.9183 39.4599 23.1414 39.3629 23.1792C39.3587 23.1809 38.9717 23.3668 38.4179 23.7024C38.3702 26.1193 38.2597 28.2616 38.1067 29.8964C38.0124 30.9022 38.0127 31.684 37.8672 32.2891C37.9904 32.3713 38.1144 32.4457 38.2377 32.5118C39.3709 33.1181 40.8157 33.3603 42.1049 33.3622C43.8514 33.3649 44.7992 33.1497 46.0279 31.7487C46.5239 31.183 46.7449 30.3377 46.8277 29.5842C46.9009 28.9165 46.8562 29.2469 46.8504 28.6504L46.8507 28.6509ZM44.5197 20.6962C44.8272 21.0241 44.8019 21.3663 44.8272 21.5954C44.8402 21.7128 44.7417 21.7022 44.4304 21.7572C43.9982 21.7259 43.7904 21.6149 43.3827 21.3659C43.3209 21.3284 43.3009 21.3094 43.3259 21.2152C43.4877 20.6034 44.1187 20.2688 44.5197 20.6962ZM42.0352 20.4119C42.0849 20.1939 42.2172 20.0395 42.4179 19.9441C42.9414 19.6958 43.2669 20.3569 43.3424 20.4673C43.4099 20.5662 43.2137 20.5968 43.0749 21.0517C43.0552 21.1166 43.0022 21.0927 42.8599 20.9888C42.1612 20.4799 41.9932 20.5956 42.0352 20.4119ZM40.6557 20.0516C41.0684 19.0954 42.0182 19.8211 41.8962 19.9799C41.7314 20.1941 41.7757 20.4183 41.6402 20.3749C40.8487 20.1211 40.5077 20.3948 40.6557 20.0516ZM42.2199 30.9566C42.0772 30.9579 42.2172 31.109 42.0144 31.4483C41.9194 31.6076 41.7072 31.6039 41.6194 31.4417C41.5632 31.3379 41.5159 31.2296 41.5579 31.1071C41.6874 30.7283 41.2582 31.0992 40.5054 30.2902C40.3032 30.0729 40.4802 29.7647 40.7322 29.8675C40.9059 29.9385 41.0439 30.1725 41.5339 30.3641C42.0287 30.5574 42.7937 30.4581 43.1429 30.0613C43.2789 29.907 43.3064 29.5657 43.1727 29.3773C42.6832 28.6877 41.7257 29.0622 41.0402 28.3319C40.2867 27.529 41.0912 26.5139 42.1304 26.3814C42.2462 26.3667 42.1714 26.2988 42.2537 25.928C42.3334 25.5677 42.8687 25.6252 42.8037 26.0187C42.7332 26.4465 42.7442 26.4534 42.8269 26.4838C44.0784 26.9424 43.7682 27.7928 43.4679 27.5332C43.3607 27.4407 43.1854 27.0028 42.5052 26.885C42.0544 26.807 41.6637 26.9313 41.3719 27.2913C41.1882 27.5182 41.1867 27.7376 41.3832 27.9637C41.9434 28.609 43.2042 28.2234 43.6929 29.293C43.7472 29.4119 43.7364 29.4644 43.7364 29.6639C43.7902 30.4467 42.9622 30.9505 42.2199 30.9569V30.9566ZM39.9792 23.6417C39.8342 23.5281 39.6154 23.2845 39.7042 23.1242C39.7727 23.0002 39.7137 23.0665 39.8374 22.9336C40.0169 23.1163 39.9717 23.1614 40.4039 23.4201C41.3087 23.9616 42.2709 24.11 43.3272 24.1783C44.5844 24.2599 44.8139 23.8725 44.8564 24.0045C45.1849 25.0273 41.4254 24.7753 39.9792 23.6417ZM44.5797 23.7564C42.9284 24.2897 39.2264 23.1133 40.0704 22.4153C40.0964 22.3938 40.1147 22.3958 40.1384 22.4168C40.9489 23.1338 42.9204 23.7155 44.5282 23.3308C44.8032 23.265 44.7587 23.158 44.8552 23.245C44.9922 23.368 44.8552 23.6674 44.5797 23.7564Z" fill="#FFDE59"/>
<path d="M11.1322 24.1098C10.4242 23.6566 10.2192 23.6906 10.212 23.5555C10.203 23.3816 10.1085 23.2993 9.94171 23.2433C9.78821 23.192 10.0457 23.1521 9.87371 22.8086C9.81096 22.6836 9.64846 22.6912 9.69896 22.6138C9.84471 22.3902 10.059 21.8743 10.1492 21.6194C10.4122 20.8767 10.5042 20.9302 9.37971 20.7181C9.32721 20.708 9.33196 20.693 9.30496 20.5697C9.10621 19.669 8.20871 19.5215 7.72371 19.9624C7.54321 20.1264 7.53846 20.2233 7.47371 20.1801C7.27846 20.0507 6.94746 20.0001 6.64596 20.1387C6.28596 20.3044 6.16496 20.5682 6.04921 20.7909C5.74971 20.6632 5.82146 20.7065 5.74121 20.6873C5.35771 20.5944 4.85721 20.8059 4.64621 21.396C4.60146 21.5212 4.60221 21.4808 4.46296 21.5227C4.17096 21.611 3.76846 21.9029 3.90696 22.1737C4.46096 23.2561 4.92196 23.3979 4.65671 23.5459C4.41321 23.6817 4.43046 23.9744 4.58246 24.2062C4.65646 24.3191 4.51871 24.3068 4.50271 24.5282C4.47671 24.8932 4.59621 24.853 4.49571 24.9765C2.01246 28.033 2.53996 31.1742 3.76196 32.3913C4.82071 33.4459 5.47271 33.8101 7.38021 33.8101C7.38121 33.832 9.66446 33.7967 10.9332 33.181C11.229 33.0375 11.4727 32.9051 11.68 32.7781C11.2637 31.602 11.148 29.1769 11.1322 24.1098ZM7.72446 20.3579C8.03546 19.8788 8.66146 19.9399 8.88746 20.3416C8.94371 20.4417 9.07121 20.6747 8.95596 20.6873C8.87996 20.6957 8.91821 20.6678 8.26396 20.7623C7.94596 20.8081 7.92471 20.8821 7.88496 20.7702C7.74521 20.3789 7.68471 20.4193 7.72471 20.3581L7.72446 20.3579ZM6.27421 20.9349C6.68996 20.0366 7.49521 20.3012 7.59271 20.8727C7.61446 21.0005 7.62271 20.9147 7.16046 21.1886C7.01771 21.2732 6.62146 21.5279 6.61621 21.5321C6.53796 21.592 6.54621 21.4552 6.43721 21.2456C6.31846 21.0177 6.24346 21.0015 6.27421 20.9349ZM6.28596 21.6492C6.29921 21.7094 6.35121 21.7271 6.28646 21.7727C5.94921 22.0102 5.65146 22.1959 5.17521 22.1902C5.04246 22.1887 4.78871 22.1823 4.79246 22.0504C4.83246 20.6185 6.07846 20.7036 6.28621 21.6492H6.28596ZM4.87096 23.6881C5.13971 23.86 5.97121 23.934 6.29096 23.9128C6.74021 23.8832 7.34446 23.8585 8.33571 23.5121C8.64421 23.4043 9.22346 23.1365 9.47371 22.871C9.52421 22.8175 9.54471 22.8574 9.59596 22.9102C10.2057 23.5417 6.97771 24.7095 5.08771 24.2227C4.59546 24.096 4.66721 23.5577 4.87096 23.6881ZM9.28821 31.2506C9.12846 31.3751 9.31596 31.725 9.39121 31.9408C9.51346 32.2911 8.96271 32.4827 8.82946 32.1435C8.55346 31.4407 8.98546 31.6192 8.19321 31.8032C7.79871 31.8947 7.01021 31.7884 6.84971 31.4276C6.65121 30.9808 7.72896 31.1976 8.07271 31.1355C9.30921 30.9113 9.57796 29.9036 8.81671 29.7068C8.17896 29.5418 7.07146 29.8653 6.56321 29.1019C6.41771 28.8835 6.31796 28.4416 6.45371 28.021C6.63021 27.4748 7.06746 27.2509 7.22571 27.1478C7.32121 27.0857 7.29821 27.1325 7.08771 26.5058C6.98746 26.2074 7.44696 26.0121 7.58421 26.2873C7.67746 26.4749 7.65371 26.4853 7.80771 26.868C7.87996 26.8534 7.95171 26.8372 8.02371 26.8241C9.46771 26.561 9.46121 27.7914 8.96096 27.604C8.81446 27.549 8.57271 27.2583 8.04346 27.4055C7.41846 27.5793 6.83571 27.9721 6.94746 28.6063C7.07671 29.3396 8.53771 28.6985 9.40271 29.2815C10.1445 29.7813 9.96196 30.7256 9.28821 31.2506ZM9.93021 23.7022C9.86496 23.9515 9.56171 24.1736 9.33271 24.3014C8.32396 24.8645 7.60746 24.9585 6.45521 25.0865C6.39846 25.0926 6.33996 25.0875 6.28271 25.0875L6.28221 25.0912C5.35671 25.0507 5.22271 25.0714 4.82771 24.8041C4.69321 24.7132 4.72796 24.3729 4.82496 24.4301C5.54921 24.8557 7.30471 24.5112 7.61371 24.4651C7.92271 24.419 8.34271 24.3179 9.02146 23.9719C9.74321 23.6038 9.74896 23.2998 9.81646 23.4105C9.96146 23.6482 9.94646 23.6398 9.93021 23.7022Z" fill="#FFDE59"/>
<path d="M38.1067 29.8968C37.9342 31.7382 38.0782 32.8288 37.0659 33.4591C36.8927 33.5668 36.5147 33.6566 36.4957 33.7069C36.4347 33.8672 36.0964 34.3004 36.0539 34.3532C35.8902 34.5566 35.7959 34.5176 35.0977 34.5674C35.0914 34.5674 33.8434 34.6298 33.2354 34.545C32.8154 34.4863 32.9104 33.9152 32.7017 33.9165C32.5042 33.9177 28.6009 33.9907 28.5939 33.9909C28.4744 33.9919 28.3687 34.3339 27.9584 34.5958C27.6127 34.8162 27.5862 34.7879 25.5062 34.778C24.3837 34.7726 24.4417 34.7127 24.1957 34.1266C24.1489 34.0151 24.2014 34.057 23.3657 34.0511C23.2244 34.0501 22.8857 34.6293 22.5149 34.6498C20.3049 34.7713 20.1524 34.6855 20.0219 34.4493C19.8549 34.1473 19.8817 34.0979 19.7597 34.0989C18.1109 34.1125 18.1432 34.0496 18.0524 34.1968C17.8682 34.4959 17.5752 34.794 17.2204 34.7812C15.1304 34.7058 14.2234 34.8902 14.0792 34.421C13.9239 33.9162 13.9384 33.948 13.8594 33.9438C11.2024 33.8058 11.0792 34.0659 11.1407 18.449C11.1574 14.1692 11.5734 10.2696 11.5872 10.1853C11.8619 8.50934 12.3644 8.38951 13.4339 8.25537C18.6684 7.59948 29.7364 7.95406 35.0082 8.1809C36.9074 8.26277 37.8749 8.426 38.0327 10.349C38.6212 17.5246 38.5159 25.5255 38.1064 29.897L38.1067 29.8968ZM21.0789 8.19964C21.0789 8.2137 14.9179 8.26523 13.0042 8.62449C12.0079 8.8114 11.8519 9.19112 11.6709 13.5772C11.3077 22.3767 11.5687 29.7728 11.7772 31.465C12.0679 33.825 12.1122 33.5609 15.4262 33.6788C19.1162 33.8102 29.7524 33.8489 30.8012 33.443C31.8717 33.0288 31.8254 32.5433 31.9024 31.8378C32.3499 27.7356 32.5554 18.3369 32.1579 12.2701C31.9004 8.34118 32.9217 8.19964 21.0789 8.19964ZM37.6572 31.4266C38.5384 22.2175 37.7617 10.9894 37.8399 11.7895C37.6354 9.69414 37.8669 8.73496 35.9629 8.53819C34.4364 8.38038 30.7214 8.30764 30.6822 8.36436C32.3914 8.91101 32.3254 9.44731 32.5002 11.4808C33.2259 19.9268 32.4532 31.0032 32.1632 32.3177C31.8599 33.6918 30.8064 33.6573 31.1744 33.659C37.1052 33.683 37.4534 33.5575 37.6574 31.4263L37.6572 31.4266Z" fill="black"/>
<path d="M29.4332 10.1739C30.4852 10.495 29.9967 11.6462 30.2557 15.4593C30.3337 16.6063 30.3787 24.8898 29.985 30.4387C29.8575 32.2345 28.932 31.6262 26.567 31.8785C26.454 31.8906 18.7752 32.0407 15.8005 31.8716C13.3877 31.7345 13.211 31.9475 13.129 29.7925C13.0192 26.9058 12.7562 11.6628 13.4747 10.5159C13.8645 9.89382 14.8867 10.1927 17.2422 9.92563C17.999 9.83982 28.2747 9.82035 29.4332 10.1739ZM29.7305 10.7075C29.5735 10.0733 26.9045 10.3436 24.2952 10.1991C22.9932 10.1268 15.2137 10.1357 13.9492 10.4506C13.5665 10.546 13.6435 10.8722 13.5755 11.4157C13.4562 12.3689 12.8655 31.1839 13.8362 31.4292C15.3262 31.8057 28.8602 31.6679 29.3895 31.3565C30.1397 30.9149 30.0262 11.9027 29.7305 10.7075Z" fill="black"/>
</svg>
